<svg xmlns="http://www.w3.org/2000/svg" width="36.962" height="106.469" viewBox="0 0 36.962 106.469">
  <g id="Group_6" data-name="Group 6" transform="translate(207.978 -190.423)">
    <path id="Path_5" data-name="Path 5" d="M147.975,51.019c-10.814,11.949-2.04,15.653-2.769,20.632s-5.879,5.183-4.95,12.257c1.482,7.46,3.95,5.1,2.237,10.149-1.132,3.336-3.529,6.264-4.247,11.38s4.014,7.427,2.009,11.358c-2.869,4.137-9.112,7.6-16.26,19.97,27.075-4.557,33.134-1.544,36.962-1.2-1.625-10.324-5.034-7.149-8.25-14.228,0,0,2.231-8.363-1.088-13.99s.769-8.716,1.671-12.251c1.524-4.861-2.716-5.213-3.2-11.188s2.871-4.858,2.415-13.287c.1-1.259-.777-3.293-3.151-7.3s-2.643-4.486-1.383-12.3Z" transform="translate(-331.974 139.404)" fill="#c1bb2b"/>
    <g id="Group_4" data-name="Group 4" transform="translate(-191.032 273.663)">
      <ellipse id="Ellipse_4" data-name="Ellipse 4" cx="4.063" cy="2.585" rx="4.063" ry="2.585" transform="translate(0)" fill="#c1bb2b"/>
      <g id="Group_3" data-name="Group 3" transform="translate(0.866 3.778)">
        <path id="Path_3" data-name="Path 3" d="M166.314,271.222v8.753s-.187,6.181,2.216,8.608a6.8,6.8,0,0,0,8.2,1.27c2.822-1.316,5.307-9.356,2.506-8.292s-3.721,1.493-5.339-.953-1.33-9.387-1.33-9.387Z" transform="translate(-166.308 -271.222)" fill="#ed6464"/>
        <path id="Path_4" data-name="Path 4" d="M6.978,23.45h0a6.537,6.537,0,0,1-4.762-2.091C.977,20.108.443,17.834.209,16.148A23.071,23.071,0,0,1,0,12.753V4H2.215V9.8a23.052,23.052,0,0,0,.207,3.394c.236,1.687.77,3.961,2.009,5.212C5.9,19.888,7,20.493,8.239,20.493a7.018,7.018,0,0,0,2.91-.82c1.251-.582,2.364-2.446,2.992-3.995-.092,2.1-1.8,6.052-3.73,6.95a8.145,8.145,0,0,1-3.433.822Z" transform="translate(0.002 -4)" fill="#cc4848"/>
      </g>
    </g>
    <path id="Subtraction_1" data-name="Subtraction 1" d="M18.076,84.545h0l-.4-.037h-.006c-.59-.054-1.259-.116-2.083-.172.924,0,1.7.032,2.293.086-4.2-6.9-6.626-9.344-11.866-9.344A35.9,35.9,0,0,0,0,75.736,29.86,29.86,0,0,0,3.975,70a14.922,14.922,0,0,0,1.72-5.264,7.055,7.055,0,0,0-1.348-5.171C.572,54.642,2.6,49.693,4.084,46.08a21.48,21.48,0,0,0,.96-2.627,5.754,5.754,0,0,0,.308-2.915,5.418,5.418,0,0,0-.922-1.88,9.5,9.5,0,0,1-1.77-5.1A9.155,9.155,0,0,1,4,27.207,23.545,23.545,0,0,0,6.439,21.02c.12-1.462-.06-3.465-2.3-7.245-1.251-2.113-1.832-3.3-1.763-5.059.073-1.872.951-4.38,2.544-8.353C3.886,1.51,2.953,2.64,2.152,3.724A32.136,32.136,0,0,1,5.093,0c-.62,3.847-.879,5.962-.67,7.574s.863,2.712,2.054,4.724c2.37,4,3.253,6.052,3.151,7.3.245,4.526-.616,6.316-1.376,7.9a8.9,8.9,0,0,0-1.039,5.39,10.98,10.98,0,0,0,2.126,5.666,8.8,8.8,0,0,1,1.233,2.373,5.356,5.356,0,0,1-.162,3.148,13.842,13.842,0,0,1-1.281,2.943A13.011,13.011,0,0,0,7.538,51.1a7.757,7.757,0,0,0,1.2,5.222,13.1,13.1,0,0,1,1.57,4.56,21.506,21.506,0,0,1,.218,4.545,26.39,26.39,0,0,1-.7,4.885,13.425,13.425,0,0,0,3.907,5.165c1.815,1.589,3.382,2.962,4.342,9.062Z" transform="translate(-189.092 190.423)" fill="#e8e249"/>
  </g>
</svg>
