<svg xmlns="http://www.w3.org/2000/svg" xmlns:xlink="http://www.w3.org/1999/xlink" viewBox="0 0 37.19 22.79"><defs><style>.cls-1{font-size:14.03px;fill:#00aeef;font-family:Chalkboard;}.cls-2{stroke:#cccacb;stroke-miterlimit:10;stroke-width:0.25px;fill:url(#linear-gradient);}.cls-3{fill:url(#radial-gradient);}</style><linearGradient id="linear-gradient" x1="16.6" y1="5.53" x2="22.16" y2="5.98" gradientUnits="userSpaceOnUse"><stop offset="0" stop-color="#231f20"/><stop offset="0.03" stop-color="#312d2e"/><stop offset="0.14" stop-color="#676465"/><stop offset="0.26" stop-color="#959394"/><stop offset="0.37" stop-color="#bbbabb"/><stop offset="0.49" stop-color="#d9d8d8"/><stop offset="0.6" stop-color="#eee"/><stop offset="0.7" stop-color="#fbfbfb"/><stop offset="0.8" stop-color="#fff"/></linearGradient><radialGradient id="radial-gradient" cx="20.48" cy="13.26" r="2.34" gradientUnits="userSpaceOnUse"><stop offset="0.44" stop-color="#382812" stop-opacity="0.65"/><stop offset="0.51" stop-color="#352410" stop-opacity="0.72"/><stop offset="0.97" stop-color="#2a150b" stop-opacity="0.95"/></radialGradient></defs><title>Asset 3</title><g id="Layer_2" data-name="Layer 2"><g id="Layer_1-2" data-name="Layer 1"><text class="cls-1" transform="translate(0 15.38) scale(1.04 1)">Go ok</text><path class="cls-2" d="M18.34.15c.15,1.77-.15,11-.15,11s.54,0,1.84,0c.35-3,.33-3.13.65-5.36C21.45.53,20.16.42,18.34.15Z"/><path class="cls-3" d="M18.19,11.18c0,.62-1.12,6.24,2.64,5.09.51-.16,1.33-1,1.1-1.62-.59-1.65-1.55-.4-1.92-.85s-.15-1.82,0-2.62A8.1,8.1,0,0,0,18.19,11.18Z"/></g></g></svg>